# AST/ASF file generated using VICON BodyLanguage
# -----------------------------------------------
:version 1.10
:name VICON
:units
  mass 1.0
  length 0.45
  angle deg
:documentation
   .ast/.asf automatically generated from VICON data using
   VICON BodyBuilder and BodyLanguage model FoxedUp or BRILLIANT.MOD
:root
   order TX TY TZ RX RY RZ
   axis XYZ
   position 0 0 0  
   orientation 0 0 0 
:bonedata
  begin
     id 1 
     name lhipjoint
     direction 0.710188 -0.616876 0.339259 
     length 2.5669 
     axis 0 0 0  XYZ
  end
  begin
     id 2 
     name lfemur
     direction 0.34202 -0.939693 0  
     length 7.12796  
     axis 0 0 20  XYZ
    dof rx ry rz
    limits (-160.0 20.0)
           (-70.0 70.0)
           (-60.0 70.0)
  end
  begin
     id 3 
     name ltibia
     direction 0.34202 -0.939693 0   
     length 7.58108   
     axis 0 0 20   XYZ
    dof rx
    limits (-10.0 170.0)
  end
  begin
     id 4 
     name lfoot
     direction 0.0669471 -0.183936 0.980656   
     length 2.17365   
     axis -90 7.62852e-016 20   XYZ
    dof rx rz
    limits (-45.0 90.0)
           (-70.0 20.0)
  end
  begin
     id 5 
     name ltoes
     direction 1.53508e-011 -4.21705e-011 1   
     length 1.09427   
     axis -90 7.62852e-016 20   XYZ
    dof rx
    limits (-90.0 20.0)
  end
  begin
     id 6 
     name rhipjoint
     direction -0.700191 -0.625589 0.34405   
     length 2.53115  
     axis 0 0 0  XYZ 
  end
  begin
     id 7 
     name rfemur
     direction -0.34202 -0.939693 0   
     length 7.33006   
     axis 0 0 -20   XYZ
    dof rx ry rz
    limits (-160.0 20.0)
           (-70.0 70.0)
           (-70.0 60.0)
  end
  begin
     id 8 
     name rtibia
     direction -0.34202 -0.939693 0   
     length 7.64926   
     axis 0 0 -20   XYZ
    dof rx
    limits (-10.0 170.0)
 end
 begin
     id 9 
     name rfoot
     direction -0.0688927 -0.189281 0.979503   
     length 2.20493  
     axis -90 -7.62852e-016 -20   XYZ
    dof rx rz
    limits (-45.0 90.0)
           (-20.0 70.0)
  end
  begin
     id 10 
     name rtoes
     direction -1.53567e-011 -4.21933e-011 1   
     length 1.10919   
     axis -90 -7.62852e-016 -20   XYZ
    dof rx
    limits (-90.0 20.0)
  end
  begin
     id 11 
     name lowerback
     direction -0.0167868 0.989873 -0.140959   
     length 2.14596   
     axis 0 0 0   XYZ
    dof rx ry rz
    limits (-20.0 45.0)
           (-30.0 30.0)
           (-30.0 30.0)
  end
  begin
     id 12 
     name upperback
     direction 0.0129109 0.998033 0.0613525   
     length 2.10457   
     axis 0 0 0   XYZ
    dof rx ry rz
    limits (-20.0 45.0)
           (-30.0 30.0)
           (-30.0 30.0)
  end
  begin
     id 13 
     name thorax
     direction 0.0177047 0.991119 0.131797   
     length 2.17652   
     axis 0 0 0   XYZ
    dof rx ry rz
    limits (-20.0 45.0)
           (-30.0 30.0)
           (-30.0 30.0)
  end
  begin
     id 14 
     name lowerneck
     direction -0.0336893 0.997548 0.0613464   
     length 1.8912   
     axis 0 0 0   XYZ
    dof rx ry rz
    limits (-20.0 45.0)
           (-30.0 30.0)
           (-30.0 30.0)
  end
  begin
     id 15 
     name upperneck
     direction 0.0435909 0.997179 -0.0611028   
     length 1.8829   
     axis 0 0 0   XYZ
    dof rx ry rz
    limits (-20.0 45.0)
           (-30.0 30.0)
           (-30.0 30.0)
  end
  begin
     id 16
     name head
     direction 0.0175076 0.999444 -0.0283782  
     length 1.93197  
     axis 0 0 0   XYZ
    dof rx ry rz
    limits (-20.0 45.0)
           (-30.0 30.0)
           (-30.0 30.0)
  end
  begin
     id 17 
     name lclavicle
     direction 0.919164 0.389875 0.0559876  
     length 3.60004  
     axis 0 0 0   XYZ
    dof ry rz
    limits (-20.0 10.0)
           (0.0 20.0)
  end
  begin
     id 18 
     name lhumerus
     direction 1 -4.48958e-011 6.89191e-027   
     length 5.43301   
     axis 180 -30 -90   XYZ
    dof rx ry rz
    limits (-60.0 90.0)
           (-90.0 90.0)
           (-90.0 90.0)
  end
  begin
     id 19
     name lradius
     direction 1 -4.4897e-011 3.24727e-027   
     length 3.15936   
     axis 180 -30 -90   XYZ
    dof rx
    limits (-10.0 170.0)
  end
  begin
     id 20
     name lwrist
     direction 1 -4.4897e-011 9.00228e-027   
     length 1.57968   
     axis -6.29373e-015 90 90   XYZ
    dof ry
    limits (-180.0 0.0)
 end
  begin
     id 21 
     name lhand
     direction 1 -4.48968e-011 1.80042e-026   
     length 0.712827   
     axis -1.14882e-014 90 90   XYZ
    dof rx rz
    limits (-90.0 90.0)
           (-45.0 45.0)
  end
  begin
     id 22 
     name lfingers
     direction 1 -4.49019e-011 3.60267e-026   
     length 0.574699   
     axis -2.29769e-014 90 90   XYZ
    dof rx
    limits (0.0 90.0)
  end
  begin
     id 23
     name lthumb
     direction 0.707107 -6.3498e-011 0.707107   
     length 0.825157   
     axis -90 45 5.37419e-014   XYZ
    dof rx rz
    limits (-45.0 45.0)
           (-45.0 45.0)
  end
  begin
     id 24 
     name rclavicle
     direction -0.890334 0.455305 -0.00132111   
     length 3.51494  
     axis 0 0 0   XYZ 
    dof ry rz
    limits (-10.0 20.0)
           (-20.0 0.0)
  end
  begin
     id 25 
     name rhumerus
     direction -1 -4.48967e-011 5.07175e-028  
     length 5.34194   
     axis 180 30 90   XYZ
    dof rx ry rz
    limits (-90.0 60.0)
           (-90.0 90.0)
           (-90.0 90.0)
  end
  begin
     id 26 
     name rradius
     direction -1 -4.48955e-011 3.30467e-027   
     length 3.19351   
     axis 180 30 90   XYZ
    dof rx
    limits (-10.0 170.0)
  end
  begin
     id 27 
     name rwrist
     direction -1 -4.48968e-011 9.00208e-027   
     length 1.59676   
     axis -6.29373e-015 -90 -90   XYZ
    dof ry
    limits (-180.0 0.0)
  end
  begin
     id 28
     name rhand
     direction -1 -4.49e-011 1.80099e-026   
     length 0.743862   
     axis -1.14882e-014 -90 -90   XYZ
    dof rx rz
    limits (-90.0 90.0)
           (-45.0 45.0)
  end
  begin
     id 29
     name rfingers
     direction -1 -4.49009e-011 3.6023e-026   
     length 0.599721   
     axis -2.29769e-014 -90 -90   XYZ
    dof rx
    limits (0.0 90.0)
  end
  begin
     id 30
     name rthumb
     direction -0.707107 -6.35025e-011 0.707107   
     length 0.861083   
     axis -90 -45 -5.37419e-014   XYZ
    dof rx rz
    limits (-45.0 45.0)
           (-45.0 45.0)
  end
:hierarchy
  begin
    root lhipjoint rhipjoint lowerback
    lhipjoint lfemur
    lfemur ltibia
    ltibia lfoot
    lfoot ltoes
    rhipjoint rfemur
    rfemur rtibia
    rtibia rfoot
    rfoot rtoes
    lowerback upperback
    upperback thorax
    thorax lowerneck lclavicle rclavicle
    lowerneck upperneck
    upperneck head
    lclavicle lhumerus
    lhumerus lradius
    lradius lwrist
    lwrist lhand lthumb
    lhand lfingers
    rclavicle rhumerus
    rhumerus rradius
    rradius rwrist
    rwrist rhand rthumb
    rhand rfingers
  end

#!OML:ASF H:\Martial Arts Walks\Project 1\Capture day 1\Session 1\male.ASF
:FULLY-SPECIFIED
:DEGREES
383
root -9.24668 15.7755 -23.3282 -76.9475 64.2495 -77.633
lowerback 41.9235 -1.0201 -6.14922
upperback 6.07083 -2.01745 7.27388
thorax -13.0457 -0.329182 12.2726
lowerneck 5.66552 -12.6709 -13.0732
upperneck -1.57871 -17.9125 24.1504
head 2.09901 -9.30988 9.06294
rclavicle 1.90833e-014 9.22361e-014
rhumerus -43.2911 -16.0047 -47.6704
rradius 87.9466
rwrist -18.2247
rhand -24.3835 -41.6276
rfingers 7.12502
rthumb 2.10701 -71.5969
lclavicle 1.90833e-014 9.22361e-014
lhumerus 0.0998709 -50.4873 89.3628
lradius 115.214
lwrist 20.3084
lhand 9.86351 -0.906106
lfingers 7.12502
lthumb 34.9969 25.6507
rfemur -100.974 -20.0371 30.4465
rtibia 125.088
rfoot -20.9543 7.9683
rtoes -23.8769
lfemur -36.9626 27.8272 -0.702585
ltibia 70.4164
lfoot -28.5925 22.0609
ltoes 1.41125
384
root -9.22472 15.6571 -23.2593 -75.6479 64.9001 -76.9059
lowerback 40.4981 -0.949297 -6.45223
upperback 5.97341 -2.02859 7.40092
thorax -12.6757 -0.346648 12.5598
lowerneck 5.81494 -12.7628 -13.1141
upperneck -1.89563 -17.9935 24.0041
head 1.98814 -9.36819 9.03361
rclavicle -3.18055e-014 1.59028e-014
rhumerus -42.7253 -15.5573 -47.8841
rradius 89.6806
rwrist -18.4245
rhand -24.8322 -41.8687
rfingers 7.12502
rthumb 1.67359 -71.8419
lclavicle -3.18055e-014 1.59028e-014
lhumerus -0.541498 -50.5941 89.4727
lradius 114.922
lwrist 19.4517
lhand 9.03763 -0.652477
lfingers 7.12502
lthumb 34.213 26.0838
rfemur -99.7118 -19.8123 28.7568
rtibia 123.779
rfoot -20.3885 8.64289
rtoes -23.3459
lfemur -38.2653 28.5383 -1.45841
ltibia 71.8846
lfoot -29.1703 21.9781
ltoes 0.630162
385
root -9.22041 15.5222 -23.2307 -74.7376 65.4116 -76.1599
lowerback 39.9122 -1.1283 -6.04537
upperback 5.80016 -2.08758 7.34911
thorax -12.6767 -0.384777 12.2952
lowerneck 5.88826 -12.892 -13.1937
upperneck -2.13063 -18.1424 23.9575
head 1.94071 -9.45325 9.02634
rclavicle -8.18993e-014 8.5875e-014
rhumerus -42.1813 -15.1577 -48.2075
rradius 91.3525
rwrist -18.5858
rhand -25.1901 -42.1122
rfingers 7.12502
rthumb 1.32795 -72.0878
lclavicle -8.18993e-014 8.5875e-014
lhumerus -1.13696 -50.7433 89.4745
lradius 114.744
lwrist 19.0299
lhand 8.55837 -0.415963
lfingers 7.12502
lthumb 33.7578 26.4212
rfemur -98.0445 -19.8077 26.9176
rtibia 122.146
rfoot -19.3642 9.57151
rtoes -22.3919
lfemur -39.3648 28.8443 -2.19474
ltibia 73.3902
lfoot -29.6664 22.3125
ltoes 0.224183
386
root -9.19714 15.4256 -23.1488 -73.6876 66.0336 -75.1256
lowerback 39.2621 -0.905367 -6.51783
upperback 5.69819 -2.00772 7.34043
thorax -12.5707 -0.33769 12.5008
lowerneck 5.96278 -13.0193 -13.075
upperneck -2.27462 -18.2845 23.8606
head 1.89268 -9.53115 8.97283
rclavicle 5.40694e-014 -4.45278e-014
rhumerus -41.7674 -14.7616 -48.6708
rradius 92.8288
rwrist -18.5147
rhand -25.5721 -42.0137
rfingers 7.12502
rthumb 0.959067 -71.9913
lclavicle 5.40694e-014 -4.45278e-014
lhumerus -1.94106 -51.1328 89.4352
lradius 114.598
lwrist 19.0754
lhand 7.78899 -0.020629
lfingers 7.12502
lthumb 33.0264 26.974
rfemur -95.9389 -19.4119 25.0486
rtibia 120.597
rfoot -18.3534 10.0218
rtoes -20.9593
lfemur -39.8547 29.6026 -2.66176
ltibia 74.6535
lfoot -30.2078 22.4379
ltoes -0.448422
387
root -9.18786 15.318 -23.0965 -73.082 66.3799 -74.4146
lowerback 38.8235 -0.899083 -6.46134
upperback 5.71605 -1.95383 7.40148
thorax -12.54 -0.313694 12.5043
lowerneck 6.09764 -13.0921 -13.0596
upperneck -2.62196 -18.3336 23.8098
head 1.77405 -9.57481 8.97046
rclavicle -7.63333e-014 7.95139e-014
rhumerus -41.0768 -14.3846 -49.0769
rradius 94.0795
rwrist -18.5136
rhand -25.8229 -42.0512
rfingers 7.12502
rthumb 0.716804 -72.0297
lclavicle -7.63333e-014 7.95139e-014
lhumerus -2.59028 -51.4504 89.3984
lradius 114.467
lwrist 19.4871
lhand 7.01806 0.219666
lfingers 7.12502
lthumb 32.2929 27.3664
rfemur -93.6874 -19.1558 23.4076
rtibia 118.755
rfoot -17.0797 10.4524
rtoes -18.9653
lfemur -40.4047 29.9959 -2.91757
ltibia 75.9489
lfoot -30.8352 22.5516
ltoes -0.383061
388
root -9.18011 15.2108 -23.0448 -72.308 66.8089 -73.6228
lowerback 38.4061 -0.865023 -6.46826
upperback 5.62983 -1.90481 7.43261
thorax -12.5044 -0.290711 12.5174
lowerneck 6.10647 -13.2286 -13.058
upperneck -2.80935 -18.4888 23.7133
head 1.73848 -9.6565 8.92902
rclavicle -4.77083e-015 -8.26944e-014
rhumerus -40.3944 -13.9702 -49.4416
rradius 95.3455
rwrist -18.7184
rhand -25.9955 -41.9934
rfingers 7.12502
rthumb 0.550108 -71.9724
lclavicle -4.77083e-015 -8.26944e-014
lhumerus -3.24377 -51.7826 89.4193
lradius 114.405
lwrist 20.4901
lhand 6.78719 1.10392
lfingers 7.12502
lthumb 32.0731 28.2952
rfemur -91.5765 -18.8221 21.6754
rtibia 116.809
rfoot -15.6451 10.7552
rtoes -16.8536
lfemur -41.006 30.3073 -3.33586
ltibia 77.127
lfoot -31.2019 22.9292
ltoes -0.781305
389
root -9.17322 15.1144 -22.9869 -71.6521 67.0851 -72.9362
lowerback 37.9778 -0.823921 -6.44097
upperback 5.59621 -1.82705 7.47883
thorax -12.4105 -0.260674 12.5119
lowerneck 6.08935 -13.3664 -13.0025
upperneck -2.97906 -18.6432 23.6702
head 1.71241 -9.73687 8.8941
rclavicle 4.05521e-014 -9.54166e-015
rhumerus -39.499 -13.6602 -49.9389
rradius 96.359
rwrist -18.9349
rhand -26.054 -41.6415
rfingers 7.12502
rthumb 0.493565 -71.6207
lclavicle 4.05521e-014 -9.54166e-015
lhumerus -3.82426 -52.1443 89.3305
lradius 114.373
lwrist 21.8659
lhand 6.64481 1.79652
lfingers 7.12502
lthumb 31.9375 29.015
rfemur -89.344 -18.3658 20.1543
rtibia 114.702
rfoot -14.0744 10.8409
rtoes -14.2845
lfemur -41.4935 30.5602 -3.42762
ltibia 78.2563
lfoot -31.8073 22.8285
ltoes -0.488815
390
root -9.16617 15.0261 -22.9256 -70.9772 67.296 -72.2166
lowerback 37.5669 -0.705358 -6.30816
upperback 5.54634 -1.61642 7.4789
thorax -12.3733 -0.169993 12.3381
lowerneck 6.2465 -13.5607 -12.7744
upperneck -3.34364 -18.8427 23.6639
head 1.59665 -9.85951 8.86311
rclavicle 4.45278e-014 -3.81667e-014
rhumerus -39.0285 -13.564 -50.3371
rradius 97.5068
rwrist -19.2339
rhand -26.1147 -41.6679
rfingers 7.12502
rthumb 0.434942 -71.6472
lclavicle 4.45278e-014 -3.81667e-014
lhumerus -4.42773 -52.8253 89.3881
lradius 114.438
lwrist 23.2294
lhand 6.69897 3.62844
lfingers 7.12502
lthumb 31.9891 30.8366
rfemur -87.1031 -17.7989 18.7164
rtibia 112.455
rfoot -12.3596 10.8868
rtoes -11.6677
lfemur -41.8737 30.9322 -3.46385
ltibia 79.2625
lfoot -32.0585 23.148
ltoes -1.23231
391
root -9.15926 14.9363 -22.8619 -70.7504 67.5855 -71.9668
lowerback 37.2596 -0.773949 -6.29073
upperback 5.48998 -1.68128 7.54957
thorax -12.313 -0.201157 12.4339
lowerneck 6.17099 -13.6106 -12.96
upperneck -3.31969 -18.9249 23.6753
head 1.65163 -9.89234 8.87624
rclavicle 3.73715e-014 5.725e-014
rhumerus -38.1595 -13.0848 -50.9366
rradius 98.4973
rwrist -19.5667
rhand -26.1227 -41.4797
rfingers 7.12502
rthumb 0.427251 -71.459
lclavicle 3.73715e-014 5.725e-014
lhumerus -5.1176 -53.0401 89.4189
lradius 114.345
lwrist 24.2017
lhand 5.51209 3.56351
lfingers 7.12502
lthumb 30.8583 30.9919
rfemur -84.7545 -17.409 17.2249
rtibia 110.081
rfoot -10.5192 10.8267
rtoes -8.84779
lfemur -42.3128 31.0169 -3.50609
ltibia 80.2207
lfoot -32.389 23.2522
ltoes -1.49863
392
root -9.15078 14.8597 -22.791 -70.1394 67.8234 -71.3672
lowerback 36.7919 -0.570216 -6.2356
upperback 5.423 -1.39571 7.53921
thorax -12.2862 -0.0721427 12.2606
lowerneck 6.3563 -13.8708 -12.6601
upperneck -3.6438 -19.216 23.6338
head 1.54782 -10.0609 8.8164
rclavicle 5.40694e-014 -2.22639e-014
rhumerus -37.9003 -13.1311 -51.281
rradius 99.5625
rwrist -19.9318
rhand -26.3874 -41.4656
rfingers 7.12502
rthumb 0.171616 -71.4453
lclavicle 5.40694e-014 -2.22639e-014
lhumerus -5.69274 -53.8709 89.4981
lradius 114.365
lwrist 25.1838
lhand 5.72592 4.56483
lfingers 7.12502
lthumb 31.0621 31.9545
rfemur -82.5324 -16.8197 15.8968
rtibia 107.631
rfoot -8.8115 10.5501
rtoes -7.93213
lfemur -42.6332 31.3589 -3.45476
ltibia 81.0657
lfoot -32.7705 23.1562
ltoes -1.69987
393
root -9.14345 14.7862 -22.7184 -69.8102 68.1787 -71.0232
lowerback 36.5758 -0.536127 -6.30212
upperback 5.2735 -1.37914 7.55287
thorax -12.3808 -0.0520297 12.313
lowerneck 6.41184 -14.0101 -12.8205
upperneck -3.5334 -19.4429 23.6469
head 1.62997 -10.1704 8.81875
rclavicle -3.89618e-014 -3.02153e-014
rhumerus -37.3794 -12.6808 -51.7387
rradius 100.494
rwrist -20.3704
rhand -26.5017 -41.1448
rfingers 7.12502
rthumb 0.0612068 -71.1246
lclavicle -3.89618e-014 -3.02153e-014
lhumerus -6.53261 -54.2789 89.7344
lradius 114.236
lwrist 25.4758
lhand 4.7401 4.33305
lfingers 7.12502
lthumb 30.122 31.8982
rfemur -80.1522 -16.2786 14.327
rtibia 105.023
rfoot -6.58636 10.6023
rtoes -5.24798
lfemur -42.9268 31.4969 -3.48287
ltibia 81.8477
lfoot -33.174 22.9881
ltoes -1.6034
394
root -9.13522 14.7151 -22.6448 -69.6297 68.4368 -70.859
lowerback 36.2897 -0.52697 -6.24332
upperback 5.1533 -1.33587 7.59707
thorax -12.425 -0.0272447 12.3144
lowerneck 6.34872 -14.1603 -12.9218
upperneck -3.38439 -19.6746 23.5216
head 1.72214 -10.2718 8.75698
rclavicle -9.54166e-015 5.56597e-014
rhumerus -36.9596 -12.3208 -52.1406
rradius 101.421
rwrist -20.733
rhand -26.7639 -40.8917
rfingers 7.12502
rthumb -0.192037 -70.8714
lclavicle -9.54166e-015 5.56597e-014
lhumerus -7.22347 -54.6532 89.9536
lradius 114.14
lwrist 25.5865
lhand 4.47371 4.70951
lfingers 7.12502
lthumb 29.8679 32.3206
rfemur -77.8122 -15.7298 12.9433
rtibia 102.336
rfoot -4.36771 10.5682
rtoes -3.72801
lfemur -43.2672 31.6959 -3.39595
ltibia 82.6056
lfoot -33.3317 22.9268
ltoes -2.17961
395
root -9.12576 14.6483 -22.5682 -69.466 68.7302 -70.6886
lowerback 35.9241 -0.424409 -6.1746
upperback 5.07996 -1.17468 7.58621
thorax -12.4098 0.0452972 12.1902
lowerneck 6.42722 -14.3736 -12.7115
upperneck -3.5226 -19.9285 23.3787
head 1.67798 -10.4058 8.66753
rclavicle -3.89618e-014 3.18055e-015
rhumerus -36.8128 -12.2232 -52.4858
rradius 102.374
rwrist -20.7731
rhand -26.8992 -40.8496
rfingers 7.12502
rthumb -0.322739 -70.8291
lclavicle -3.89618e-014 3.18055e-015
lhumerus -7.69044 -55.3536 90.0843
lradius 114.033
lwrist 25.4156
lhand 4.19277 5.40399
lfingers 7.12502
lthumb 29.5997 33.063
rfemur -75.478 -15.1852 11.5759
rtibia 99.5721
rfoot -2.26554 10.6146
rtoes -3.34126
lfemur -43.5513 31.9541 -3.31663
ltibia 83.321
lfoot -33.6151 22.7211
ltoes -2.47725
